<svg width="68" height="70" viewBox="0 0 68 70" fill="none" xmlns="http://www.w3.org/2000/svg">
<path fill-rule="evenodd" clip-rule="evenodd" d="M20.5 2.5C14.0743 5.29188 11.013 8.72316 6.72178 14.4532C1.6627 21.2055 -0.362669 27.9488 0.0526432 36.652C0.668851 49.5653 7.25203 60.1566 18.4355 66.229C23.0793 68.7502 24.7723 69.5 34 69.5C43.2277 69.5 44.2815 68.7502 48.9252 66.229C55.4205 62.7026 60.892 57.0641 64.3121 50.3715C66.7334 45.6348 68 44.1229 68 35.159C68 26.1951 66.7334 24.6832 64.3121 19.9464C60.8688 13.2101 55.379 7.57555 48.9252 4.15562C44.7335 1.93405 42.1405 0.787644 35 0.499995C27.5311 0.199407 25.2027 0.456598 20.5 2.5ZM44.4737 10.5366C54.6768 15.2087 60.1609 23.7884 60.2101 35.159C60.2575 45.8756 55.3307 54.2473 46.1272 59.0876C33.0294 65.9752 16.9723 60.8801 10.3002 47.718C6.46777 40.1585 6.45135 30.1883 10.2587 22.6895C16.7076 9.98622 31.6676 4.67219 44.4737 10.5366ZM24.9878 35.7392C24.9878 45.0913 24.5252 52.1831 24.9878 52C26.876 51.2555 52.0256 36.1165 52.0208 35.6566C52.015 35.0943 25.8619 18.5 24.9878 18.5C24.6768 18.5 24.9878 26.3882 24.9878 35.7392Z" fill="white"/>
</svg>
